<?xml version="1.0" encoding="utf-8"?><!DOCTYPE svg PUBLIC "-//W3C//DTD SVG 1.1//EN" "http://www.w3.org/Graphics/SVG/1.1/DTD/svg11.dtd"><svg xmlns="http://www.w3.org/2000/svg" xmlns:xlink="http://www.w3.org/1999/xlink"><symbol viewBox="0 0 32 32" id="chevron-down" xmlns="http://www.w3.org/2000/svg"><path fill="#444" d="M9.875 10.438L16 16.563l6.125-6.125L24 12.313l-8 8-8-8z"/></symbol><symbol viewBox="0 0 32 32" id="chevron-up" xmlns="http://www.w3.org/2000/svg"><path fill="#444" d="M9.875 20.563L8 18.688l8-8 8 8-1.875 1.875L16 14.438z"/></symbol><symbol viewBox="0 0 32 32" id="close" xmlns="http://www.w3.org/2000/svg"><path fill="#444" d="M25.313 8.563l-7.438 7.438 7.438 7.438-1.875 1.875L16 17.876l-7.438 7.438-1.875-1.875 7.438-7.438-7.438-7.438 1.875-1.875L16 14.126l7.438-7.438z"/></symbol><symbol viewBox="0 0 393.977 363.422" id="heart" xmlns="http://www.w3.org/2000/svg"><g fill="currentColor"><path d="M196.238 40.173l161.624 161.624-161.624 161.624L34.614 201.797z"/><path d="M234.286 118.643c0 64.696-52.447 117.143-117.143 117.143S0 183.339 0 118.643 52.447 1.5 117.143 1.5s117.143 52.447 117.143 117.143z"/><path d="M393.977 117.143c0 64.696-52.447 117.143-117.143 117.143-64.697 0-117.143-52.447-117.143-117.143S212.137 0 276.834 0c64.696 0 117.143 52.447 117.143 117.143z"/></g></symbol><symbol viewBox="0 0 32 32" id="home" xmlns="http://www.w3.org/2000/svg"><path fill="currentColor" d="M13.313 26.688H6.688V16h-4L16.001 4l13.313 12h-4v10.688h-6.625v-8h-5.375v8z"/></symbol></svg>